<?xml version="1.0" standalone="no"?>
<!DOCTYPE svg PUBLIC "-//W3C//DTD SVG 20010904//EN"
 "http://www.w3.org/TR/2001/REC-SVG-20010904/DTD/svg10.dtd">
<svg version="1.0" xmlns="http://www.w3.org/2000/svg"
 width="620.000000pt" height="326.000000pt" viewBox="0 0 620.000000 326.000000"
 preserveAspectRatio="xMidYMid meet">

<g transform="translate(0.000000,326.000000) scale(0.100000,-0.100000)"
fill="#000000" stroke="none">
<path d="M2010 1815 c-96 -96 -179 -175 -183 -175 -5 0 -43 32 -83 72 l-75 72
-67 -67 -67 -67 147 -147 148 -147 235 234 c130 129 240 242 245 251 7 12 -7
31 -58 82 l-67 67 -175 -175z"/>
<path d="M3350 1800 c0 -80 0 -81 -22 -73 -13 4 -46 8 -75 8 -64 0 -99 -23
-132 -88 -43 -87 -7 -184 82 -221 46 -19 51 -20 95 -4 32 12 50 14 58 7 7 -6
28 -9 46 -7 l33 3 0 225 0 225 -42 3 -43 3 0 -81z m-23 -162 c32 -30 32 -90
-2 -123 -77 -78 -187 42 -112 123 27 29 82 30 114 0z"/>
<path d="M3940 1649 l0 -230 38 3 37 3 3 228 2 227 -40 0 -40 0 0 -231z"/>
<path d="M4066 1855 c-9 -9 -16 -23 -16 -30 0 -23 31 -46 59 -43 23 3 26 7 26
43 0 36 -3 40 -26 43 -15 2 -34 -4 -43 -13z"/>
<path d="M2470 1775 c0 -14 -11 -34 -25 -47 -31 -27 -32 -60 -2 -73 20 -9 22
-17 25 -107 3 -91 4 -98 29 -118 18 -14 40 -20 73 -20 53 0 73 16 68 52 -2 18
-10 24 -35 26 -46 5 -54 21 -51 99 l3 68 40 5 c37 5 40 8 40 35 0 28 -3 30
-40 35 -37 5 -40 8 -43 38 -3 30 -6 32 -43 32 -35 0 -39 -3 -39 -25z"/>
<path d="M4450 1767 c0 -21 -7 -36 -20 -45 -11 -7 -20 -22 -20 -33 0 -12 8
-23 20 -26 18 -5 20 -14 20 -85 0 -128 35 -174 126 -166 37 3 39 5 39 38 0 31
-3 35 -27 38 -41 5 -49 23 -46 99 l3 68 38 3 c35 3 37 5 37 38 0 33 -1 34 -40
34 -39 0 -40 1 -40 35 0 35 0 35 -45 35 -44 0 -45 -1 -45 -33z"/>
<path d="M2735 1726 c-66 -29 -104 -105 -92 -182 19 -113 161 -169 253 -99
118 90 64 280 -83 292 -28 2 -61 -3 -78 -11z m112 -88 c31 -29 32 -99 3 -128
-52 -52 -141 6 -125 81 14 64 78 89 122 47z"/>
<path d="M3562 1732 c-36 -11 -87 -68 -102 -111 -27 -83 37 -189 123 -205 98
-18 197 65 197 165 0 42 -34 103 -71 130 -33 23 -106 34 -147 21z m107 -98
c46 -58 13 -144 -55 -144 -23 0 -38 8 -53 26 -45 57 -12 144 54 144 24 0 39
-7 54 -26z"/>
<path d="M4233 1726 c-93 -42 -71 -162 33 -182 36 -7 59 -27 49 -44 -8 -12
-55 -13 -74 -1 -10 6 -25 4 -44 -6 l-30 -15 31 -30 c26 -26 38 -31 84 -32 149
-2 173 163 28 193 -39 8 -63 37 -41 50 8 5 26 5 43 -1 41 -15 83 4 69 30 -5
10 -16 24 -23 30 -24 19 -90 23 -125 8z"/>
<path d="M4060 1575 l0 -156 38 3 37 3 0 150 0 150 -37 3 -38 3 0 -156z"/>
</g>
</svg>
